# xmcd
#
# Track frame offsets: 
#        150
#        9092
#        24112
#        33160
#        44995
#        56280
#        67457
#        79870
#        91497
#        102312
#        110865
#        123667
#        131410
#        141160
#        150505
#        164165
#        177470
#        189350
#        205002
#        218865
#        231632
#        243135
#        252290
#        263300
#        274995
#
# Disc length: 3829 seconds
#
# Revision: 1
# Processed by: cddbd v1.5.2PL0 Copyright (c) Steve Scherf et al.
# Submitted via: ExactAudioCopy v0.95b4
#
DISCID=690ef319
DTITLE=Country Rockers - Free Range Chicken
DYEAR=1900
DGENRE=Rock
TTITLE0=Arkansas Twist
TTITLE1=Don't Worry
TTITLE2=Mona Lisa
TTITLE3=Steel Guitar Rag
TTITLE4=Alley Boogie
TTITLE5=The Image Of Me
TTITLE6=Love A Rama
TTITLE7=Castro Rock
TTITLE8=Rainin - In My Heart
TTITLE9=Stompin' At The Savoy
TTITLE10=The Last Bouquet
TTITLE11=The Trail Of The Lonesome Pine
TTITLE12=Rockin' Daddy
TTITLE13=My Bucket's Got A Hole In It
TTITLE14=Finally
TTITLE15=Wipe Out
TTITLE16=Pistol Packin' Mama
TTITLE17=See You Later Alligator
TTITLE18=Drivin' Nails In My Coffin
TTITLE19=Fan It And Cool It
TTITLE20=There Stands The Glass
TTITLE21=Rancho Grande
TTITLE22=My Happiness
TTITLE23=Guitar Polka
TTITLE24=Barrooms To Bedrooms
EXTD=Telstar Records
EXTT0=
EXTT1=
EXTT2=
EXTT3=
EXTT4=
EXTT5=
EXTT6=
EXTT7=
EXTT8=
EXTT9=
EXTT10=
EXTT11=
EXTT12=
EXTT13=
EXTT14=
EXTT15=
EXTT16=
EXTT17=
EXTT18=
EXTT19=
EXTT20=
EXTT21=
EXTT22=
EXTT23=
EXTT24=
PLAYORDER=
